<?xml version="1.0" encoding="UTF-8" standalone="no"?>
<!-- Created with Inkscape (http://www.inkscape.org/) -->

<svg
   width="143.43294mm"
   height="136.9483mm"
   viewBox="0 0 143.43294 136.9483"
   version="1.1"
   id="svg5"
   xml:space="preserve"
   sodipodi:docname="paper.svg"
   inkscape:version="1.2 (dc2aeda, 2022-05-15)"
   xmlns:inkscape="http://www.inkscape.org/namespaces/inkscape"
   xmlns:sodipodi="http://sodipodi.sourceforge.net/DTD/sodipodi-0.dtd"
   xmlns:xlink="http://www.w3.org/1999/xlink"
   xmlns="http://www.w3.org/2000/svg"
   xmlns:svg="http://www.w3.org/2000/svg"><sodipodi:namedview
     id="namedview7"
     pagecolor="#ffffff"
     bordercolor="#000000"
     borderopacity="0.25"
     inkscape:showpageshadow="2"
     inkscape:pageopacity="0.0"
     inkscape:pagecheckerboard="0"
     inkscape:deskcolor="#d1d1d1"
     inkscape:document-units="mm"
     showgrid="false"
     inkscape:zoom="0.49603952"
     inkscape:cx="295.33937"
     inkscape:cy="533.22364"
     inkscape:window-width="1390"
     inkscape:window-height="1205"
     inkscape:window-x="996"
     inkscape:window-y="269"
     inkscape:window-maximized="0"
     inkscape:current-layer="layer1" /><defs
     id="defs2"><linearGradient
       id="linearGradient5134"
       inkscape:swatch="solid"><stop
         style="stop-color:#000000;stop-opacity:1;"
         offset="0"
         id="stop5132" /></linearGradient><linearGradient
       id="linearGradient5126"
       inkscape:swatch="solid"><stop
         style="stop-color:#000000;stop-opacity:1;"
         offset="0"
         id="stop5124" /></linearGradient><linearGradient
       id="linearGradient3158"
       inkscape:swatch="solid"><stop
         style="stop-color:#000000;stop-opacity:1;"
         offset="0"
         id="stop3156" /></linearGradient><clipPath
       clipPathUnits="userSpaceOnUse"
       id="clipPath547"><rect
         style="fill:#0000ff;stroke-width:0.169499"
         id="rect549"
         width="154.92314"
         height="215.12296"
         x="372.98111"
         y="35.835812" /></clipPath><linearGradient
       inkscape:collect="always"
       xlink:href="#linearGradient5134"
       id="linearGradient5136"
       x1="378.20177"
       y1="140.73118"
       x2="517.56501"
       y2="140.73118"
       gradientUnits="userSpaceOnUse" /></defs><g
     inkscape:label="Layer 1"
     inkscape:groupmode="layer"
     id="layer1"
     transform="translate(-25.20382,-64.48801)"><g
       id="g3148"><path
         style="fill:#000000;stroke:url(#linearGradient5136);stroke-width:2.302;stroke-dasharray:none;paint-order:fill markers stroke"
         d="m 471.56804,208.96079 c -0.18568,-0.13451 -0.98597,-0.94413 -1.77842,-1.79917 -4.97212,-5.36481 -10.51274,-9.82845 -17.17621,-13.83754 -2.98995,-1.79891 -5.85607,-3.30442 -10.47162,-5.50056 -1.19869,-0.57035 -2.62744,-1.31151 -3.175,-1.64702 -3.88441,-2.38015 -10.81483,-8.14304 -18.22523,-15.15493 -3.86408,-3.65627 -7.21685,-6.58418 -24.72267,-21.58981 -7.48479,-6.41581 -9.71246,-8.36314 -10.26294,-8.97145 -1.57368,-1.73896 -1.75226,-3.98502 -0.48626,-6.116 0.46618,-0.78471 1.58297,-2.26282 3.24922,-4.30047 l 1.34857,-1.64917 -1.68679,-1.63804 c -0.92774,-0.90092 -2.84885,-2.74793 -4.26913,-4.10446 -1.42028,-1.35653 -2.81093,-2.70024 -3.09033,-2.98601 -0.89323,-0.91362 -1.37945,-1.9423 -1.45872,-3.08614 -0.0833,-1.20195 0.27312,-2.16954 1.17299,-3.18447 0.9992,-1.12697 3.07411,-3.85229 6.44791,-8.46914 0.68539,-0.9379 1.24615,-1.74582 1.24615,-1.79539 0,-0.0496 -1.39151,-1.33227 -3.09225,-2.85047 -3.09445,-2.762331 -3.58273,-3.257017 -4.00528,-4.057854 -0.20135,-0.381608 -0.22601,-0.520917 -0.22607,-1.276792 -6e-5,-0.791619 0.019,-0.887089 0.28397,-1.425391 0.15621,-0.317319 0.47785,-0.830868 0.71475,-1.141219 1.12071,-1.468177 1.49981,-1.999039 3.06337,-4.289609 2.12487,-3.112891 2.75874,-3.944711 3.81023,-5.00012 0.8983,-0.901665 1.78281,-1.517922 2.63879,-1.838524 0.4032,-0.15102 0.67684,-0.185874 1.46916,-0.187137 0.94237,-0.0015 0.98999,0.0074 1.48166,0.276521 0.2794,0.152941 0.8128,0.523848 1.18534,0.824237 0.37253,0.30039 0.69638,0.545455 0.71966,0.54459 0.0233,-8.64e-4 0.36619,-0.482522 0.762,-1.070349 1.09253,-1.622505 3.10932,-4.449209 3.87711,-5.434081 1.66785,-2.139426 2.57046,-3.027246 3.68103,-3.620676 0.59924,-0.3202 0.63104,-0.32713 1.50298,-0.32713 0.83433,0 0.92628,0.0175 1.45109,0.27584 0.30817,0.15172 0.84424,0.49462 1.19128,0.762 0.34704,0.26739 11.21363,9.382513 24.14799,20.255829 12.93436,10.873315 23.54984,19.769675 23.58994,19.769675 0.0401,0 0.33753,-0.39008 0.66095,-0.86684 2.2672,-3.34218 4.51027,-5.29968 6.57264,-5.73588 0.74653,-0.15789 1.03387,-0.15804 2.52668,-0.001 4.08793,0.4293 11.71673,2.10016 15.63432,3.42425 3.8748,1.30962 7.14643,3.41588 8.84766,5.69607 0.23284,0.31207 3.48627,5.55046 7.22985,11.64086 l 6.80652,11.07346 -0.0974,2.20134 c -0.12062,2.72721 -0.38855,4.83542 -0.99531,7.83166 -0.91023,4.49471 -2.77304,10.57492 -4.86539,15.88056 -0.36849,0.93439 -0.66998,1.74291 -0.66998,1.79671 0,0.0538 3.68643,4.22324 8.19208,9.26543 4.50565,5.0422 8.50972,9.52765 8.89793,9.96768 0.70616,0.80041 1.1957,1.53372 1.19719,1.79336 8.5e-4,0.1507 -1.49824,1.51293 -1.66496,1.51293 -0.35868,0 -1.79942,-1.55031 -10.57524,-11.37946 -5.19301,-5.81631 -9.42384,-10.61691 -9.40184,-10.668 2.70793,-6.28611 5.02948,-13.45987 6.14014,-18.97354 0.59776,-2.96743 0.93735,-5.71434 0.93916,-7.59688 l 8.7e-4,-0.90822 -6.5719,-10.69112 c -3.61454,-5.88011 -6.76087,-10.92898 -6.99184,-11.21971 -1.67633,-2.11008 -4.91283,-3.87886 -9.4899,-5.18631 -4.34193,-1.24028 -11.86692,-2.70942 -13.87777,-2.70942 -0.99901,0 -1.70535,0.37522 -2.93724,1.56033 -1.27034,1.22209 -3.35842,4.06497 -3.17944,4.32874 0.0439,0.0647 2.99441,2.73182 6.55676,5.92704 3.56235,3.19521 6.56993,5.89993 6.68352,6.01047 0.27124,0.26395 0.22465,0.34682 -0.82678,1.47064 l -0.8254,0.88222 -7.21421,-6.48224 -7.2142,-6.48223 -24.35404,-20.47732 C 418.21507,84.943145 407.01571,75.560876 406.72233,75.356176 c -0.51578,-0.35986 -0.5427,-0.3684 -0.8136,-0.25815 -0.86649,0.35266 -3.30894,3.403276 -6.45764,8.065557 l -1.01279,1.499657 0.20846,0.201646 c 0.11466,0.110907 8.49522,7.735432 18.62347,16.943394 10.12825,9.20796 18.42656,16.80817 18.44069,16.88936 0.0413,0.23705 -1.6036,2.06022 -1.81657,2.0135 -0.0621,-0.0136 -8.61517,-7.75908 -19.00675,-17.21212 -10.39157,-9.453035 -19.29771,-17.544945 -19.79141,-17.982023 -1.16317,-1.029778 -2.05656,-1.702995 -2.25983,-1.702911 -0.38206,1.69e-4 -1.22842,0.514075 -1.89427,1.150219 -0.86418,0.825641 -1.74134,1.979512 -3.85621,5.072713 -0.92331,1.350434 -2.0498,2.944548 -2.50332,3.542477 -0.45352,0.597928 -0.84439,1.16288 -0.86859,1.255448 -0.03,0.114608 0.0553,0.278679 0.26729,0.514258 0.17121,0.190273 2.0639,1.910781 4.20597,3.82335 2.14206,1.912569 3.97086,3.561399 4.064,3.664069 0.0931,0.10266 6.74158,6.36282 14.77433,13.91146 8.03275,7.54863 14.61674,13.77724 14.63109,13.84134 0.0324,0.14486 -1.55084,1.88332 -1.78202,1.95669 -0.1279,0.0406 -0.28398,-0.0582 -0.64571,-0.40856 -0.94514,-0.91555 -28.7422,-27.0303 -28.79069,-27.04825 -0.0273,-0.0101 -0.40976,0.48518 -0.84988,1.10066 -1.65682,2.31698 -5.53717,7.46267 -6.4023,8.49003 -0.49449,0.58722 -0.9336,1.18805 -0.97579,1.33516 -0.0544,0.1896 -0.0381,0.40025 0.0558,0.72345 0.15457,0.53168 -0.11079,0.25462 4.43946,4.63536 1.74625,1.68119 3.84175,3.70251 4.65667,4.49182 1.40254,1.35847 2.28306,2.05588 16.48883,13.05994 8.25394,6.39366 15.00717,11.6741 15.00717,11.73432 0,0.11884 -0.83749,1.25704 -1.34928,1.83374 l -0.31748,0.35776 -0.33741,-0.24994 c -0.18558,-0.13745 -6.72954,-5.20292 -14.54214,-11.25659 -7.81259,-6.05367 -14.23555,-11.00666 -14.27323,-11.00666 -0.11205,0 -2.99894,3.56632 -3.90657,4.82599 -0.73421,1.01898 -0.98693,1.81338 -0.78896,2.48 0.229,0.77114 0.39176,0.9203 9.9034,9.07562 18.48904,15.85259 21.31147,18.31471 25.18833,21.97273 7.01201,6.61619 12.8745,11.58639 16.84867,14.28426 1.51778,1.03033 1.94635,1.26332 4.86955,2.64721 3.8856,1.8395 6.67048,3.31176 9.73009,5.14391 l 1.68911,1.01146 0.76679,-0.13891 c 1.21482,-0.22008 4.01902,-0.8467 5.89022,-1.31622 10.26735,-2.57625 18.20725,-6.08631 22.19806,-9.81329 0.35362,-0.33024 0.68775,-0.60043 0.74251,-0.60043 0.13635,0 1.95034,1.77835 1.95034,1.91202 0,0.11749 -1.07124,1.11748 -1.99587,1.86315 -0.69048,0.55683 -2.92254,2.04529 -3.88846,2.59303 -4.9778,2.82274 -12.31207,5.45531 -20.27767,7.2785 -1.04775,0.23981 -1.92374,0.45162 -1.94663,0.47067 -0.0229,0.0191 0.023,0.0708 0.10195,0.11501 0.079,0.0442 0.80255,0.56043 1.60796,1.1472 3.14137,2.28857 6.11611,4.81868 8.79498,7.48042 2.71262,2.69527 4.07032,4.2784 4.19233,4.88843 0.0445,0.2225 -0.0156,0.29508 -0.74033,0.8942 -0.43381,0.35861 -0.85043,0.65203 -0.9258,0.65203 -0.0754,0 -0.28897,-0.11005 -0.47465,-0.24455 z"
         id="path179"
         clip-path="url(#clipPath547)"
         transform="translate(-347.77729,-7.7690064)"
         sodipodi:nodetypes="csssssscsscsscsscssssccccssccsccssccsscscsssccsssssssscsscssssssssscccccccccsccscccssccccscscscsccsssssccssssssssscssssssssccssssscc" /></g></g></svg>
