<?xml version="1.0" encoding="UTF-8" standalone="no"?>
<!-- Created with Inkscape (http://www.inkscape.org/) -->

<svg
   width="138.01413mm"
   height="136.9483mm"
   viewBox="0 0 138.01413 136.9483"
   version="1.1"
   id="svg5"
   xml:space="preserve"
   inkscape:export-filename="bitmap.svg"
   inkscape:export-xdpi="96"
   inkscape:export-ydpi="96"
   sodipodi:docname="rock.svg"
   inkscape:version="1.2 (dc2aeda, 2022-05-15)"
   xmlns:inkscape="http://www.inkscape.org/namespaces/inkscape"
   xmlns:sodipodi="http://sodipodi.sourceforge.net/DTD/sodipodi-0.dtd"
   xmlns:xlink="http://www.w3.org/1999/xlink"
   xmlns="http://www.w3.org/2000/svg"
   xmlns:svg="http://www.w3.org/2000/svg"><sodipodi:namedview
     id="namedview7"
     pagecolor="#ffffff"
     bordercolor="#000000"
     borderopacity="0.25"
     inkscape:showpageshadow="2"
     inkscape:pageopacity="0.0"
     inkscape:pagecheckerboard="0"
     inkscape:deskcolor="#d1d1d1"
     inkscape:document-units="mm"
     showgrid="false"
     inkscape:zoom="0.35075291"
     inkscape:cx="209.54922"
     inkscape:cy="896.6426"
     inkscape:window-width="1390"
     inkscape:window-height="1205"
     inkscape:window-x="-1"
     inkscape:window-y="25"
     inkscape:window-maximized="0"
     inkscape:current-layer="layer1" /><defs
     id="defs2"><linearGradient
       id="linearGradient11662"
       inkscape:swatch="solid"><stop
         style="stop-color:#000000;stop-opacity:1;"
         offset="0"
         id="stop11660" /></linearGradient><clipPath
       clipPathUnits="userSpaceOnUse"
       id="clipPath473"><rect
         style="fill:#0000ff;stroke-width:0.159982"
         id="rect475"
         width="138.01411"
         height="215.12296"
         x="213.03098"
         y="41.776817" /></clipPath><linearGradient
       inkscape:collect="always"
       xlink:href="#linearGradient11662"
       id="linearGradient11664"
       x1="233.26816"
       y1="140.05173"
       x2="336.4768"
       y2="140.05173"
       gradientUnits="userSpaceOnUse" /></defs><g
     inkscape:label="Layer 1"
     inkscape:groupmode="layer"
     id="layer1"
     transform="translate(-40.909395,-43.819538)"><path
       style="fill:#000000;stroke-width:2.302;stroke-dasharray:none;stroke:url(#linearGradient11664)"
       d="m 262.9707,198.7107 c -0.20639,-0.23167 -0.29209,-0.76926 -0.42581,-2.67102 -0.55341,-7.87089 -1.34105,-13.68185 -2.21136,-16.31462 -0.44609,-1.34949 -0.94137,-1.93981 -9.86273,-11.75557 -10.21277,-11.23663 -12.82753,-14.30991 -13.62521,-16.01452 -0.63339,-1.35351 -1.07267,-4.12448 -1.39342,-8.78963 -0.2007,-2.91904 -0.32583,-7.31324 -0.27726,-9.73666 0.0677,-3.37812 -0.0712,-5.28783 -0.96034,-13.20799 -0.91088,-8.11359 -0.9436,-8.46771 -0.9463,-10.24467 -0.002,-1.4221 0.0224,-1.74285 0.17687,-2.31348 0.24443,-0.90272 0.54499,-1.41965 1.15986,-1.99482 0.80567,-0.75367 2.11157,-1.35832 6.98189,-3.23274 1.00118,-0.38533 1.83019,-0.7071 1.84224,-0.71507 0.012,-0.008 -0.1632,-0.41102 -0.38944,-0.89569 -0.22623,-0.48466 -0.60598,-1.360924 -0.84388,-1.947252 -1.37378,-3.385892 -1.31335,-5.050588 0.2336,-6.43464 1.05424,-0.943231 13.75229,-10.575234 14.30208,-10.848731 0.45062,-0.224164 0.6614,-0.274248 1.27831,-0.303744 0.51551,-0.02465 0.87812,0.0052 1.20004,0.09879 0.90225,0.262291 1.95633,1.114437 2.74698,2.220724 0.34807,0.487039 1.35086,2.414436 2.01646,3.875772 0.25205,0.553351 0.32816,0.65463 0.45186,0.601218 0.57148,-0.246765 1.76443,-0.675663 2.30162,-0.827494 0.57833,-0.163461 0.84845,-0.181071 2.7578,-0.179794 2.17789,0.0015 3.13476,0.06368 6.56167,0.426711 4.37936,0.463928 7.00126,0.877453 8.32865,1.313594 1.01949,0.334976 2.71494,1.167048 3.15906,1.550364 0.45601,0.393578 0.83595,1.159835 0.96966,1.95561 l 0.10585,0.629876 0.38588,0.12366 c 0.21224,0.06801 1.66225,0.528993 3.22223,1.0244 5.30323,1.684157 12.289,3.944197 13.19808,4.26985 1.88155,0.674016 3.08911,1.377696 3.93838,2.295006 0.8102,0.87511 0.86824,1.04956 1.3346,4.0106 0.22687,1.44048 0.42137,2.62545 0.43221,2.63326 0.0109,0.008 1.37228,0.59585 3.0254,1.30675 6.94517,2.98666 11.06399,4.89171 12.446,5.75657 2.12801,1.3317 3.06726,2.37419 4.19852,4.66004 0.99358,2.00761 3.22376,7.22914 4.24906,9.94832 1.55414,4.12171 1.80342,6.36486 0.96118,8.64915 -0.45537,1.235 -2.18171,6.78953 -5.04736,16.23988 -0.95969,3.16489 -1.75259,5.76023 -1.76198,5.76742 -1.49578,1.14408 -9.76485,7.18384 -12.1457,8.87125 -1.46665,1.03947 -2.4861,1.92042 -3.69278,3.19106 -2.63621,2.77593 -5.07953,6.19324 -5.96724,8.34595 -0.56113,1.36076 -0.71741,2.80389 -0.71402,6.59329 10e-4,1.5367 0.0481,3.474 0.10379,4.30512 0.0557,0.83111 0.0765,1.65763 0.0463,1.8367 l -0.055,0.32557 -1.05456,0.35143 c -0.58001,0.19329 -1.1067,0.33143 -1.17044,0.30697 -0.0637,-0.0245 -0.19711,-0.26159 -0.2964,-0.52694 -0.2437,-0.65133 -0.33594,-1.90154 -0.39945,-5.41352 -0.076,-4.20379 0.11249,-6.58512 0.64777,-8.18282 0.80837,-2.41282 3.1819,-5.95336 6.26846,-9.35053 1.77569,-1.95439 2.76426,-2.79793 5.79688,-4.94645 1.49543,-1.05948 4.57323,-3.3041 7.97356,-5.81508 1.82285,-1.34609 2.23166,-1.68526 2.30313,-1.91085 0.0478,-0.15085 0.66315,-2.17927 1.36745,-4.5076 2.50491,-8.28092 4.35843,-14.25518 5.09443,-16.42033 0.34273,-1.00824 0.34354,-1.01367 0.29655,-1.98967 -0.0708,-1.47054 -0.48979,-2.89728 -1.85251,-6.30835 -1.92682,-4.82312 -3.81672,-8.93149 -4.50909,-9.80209 -0.83789,-1.05361 -2.23256,-1.96958 -4.91619,-3.22876 -3.49785,-1.64124 -11.15042,-4.977 -11.22597,-4.89341 -0.0275,0.0304 -0.21063,1.92219 -0.407,4.20395 -0.74317,8.63544 -1.64455,17.63351 -2.04679,20.43224 -0.20763,1.44476 -0.26891,1.28147 0.92915,2.47592 l 0.81261,0.81017 3.62477,1.83566 c 3.11972,1.5799 3.6777,1.83567 4.0047,1.83567 0.82588,0 1.18165,-0.39397 1.54704,-1.71322 0.2802,-1.01163 1.49105,-6.20319 1.96727,-8.43472 0.16848,-0.78947 0.32185,-1.31729 0.39039,-1.3436 0.148,-0.0568 2.38029,0.41421 2.54949,0.53793 0.14965,0.10943 0.19726,-0.13903 -0.9246,4.82487 -1.32942,5.88224 -1.58786,6.7085 -2.37976,7.60815 -0.94615,1.07488 -2.56771,1.59234 -4.02507,1.28447 -0.48973,-0.10346 -1.33425,-0.4961 -4.23333,-1.96817 -1.99186,-1.01141 -3.82197,-1.97011 -4.06689,-2.13043 -0.24493,-0.16033 -0.73042,-0.55775 -1.07886,-0.88316 l -0.63353,-0.59165 -0.38997,0.34326 c -0.50844,0.44755 -0.97318,0.7153 -1.64655,0.94861 -0.69684,0.24145 -2.0572,0.26819 -2.84807,0.056 -0.28764,-0.0772 -2.15454,-0.77497 -4.14867,-1.55064 -1.99413,-0.77568 -4.06863,-1.57088 -4.61,-1.76713 -0.54136,-0.19624 -1.1593,-0.45935 -1.37319,-0.5847 -0.53348,-0.31264 -1.30132,-1.03909 -1.75105,-1.65666 -0.20608,-0.28299 -0.3963,-0.51454 -0.4227,-0.51454 -0.0264,0 -0.12075,0.21395 -0.20962,0.47544 -0.21268,0.62565 -0.79398,1.60098 -1.19988,2.01318 -0.45707,0.46415 -0.88164,0.71225 -1.48218,0.8661 -0.70555,0.18076 -1.20305,0.1078 -2.70151,-0.39616 -1.68538,-0.56682 -7.31357,-1.98811 -10.39976,-2.62625 -0.43827,-0.0906 -0.96087,-0.24668 -1.16133,-0.3468 -0.4176,-0.20856 -1.08959,-0.84026 -1.56825,-1.47426 l -0.32864,-0.43527 -0.48546,0.11104 c -0.8673,0.19838 -4.46207,0.52333 -8.90979,0.8054 -0.86149,0.0546 -1.57817,0.10916 -1.59264,0.12116 -0.0145,0.012 0.13715,0.65694 0.33693,1.4332 l 0.36325,1.41137 0.84839,-0.0685 c 1.31614,-0.10628 3.61803,-0.0588 4.6584,0.0961 1.16583,0.17356 2.05923,0.41221 4.36033,1.16473 10.11273,3.30715 17.91671,7.27567 21.98178,11.17831 0.38989,0.37431 0.70889,0.7432 0.70889,0.81977 0,0.13946 -1.50048,1.59159 -1.82191,1.7632 -0.14933,0.0797 -0.27416,-0.002 -0.98906,-0.64976 -2.1318,-1.93076 -4.65931,-3.57021 -8.35565,-5.41981 -3.70203,-1.85246 -8.33607,-3.68823 -13.26726,-5.25582 -2.56393,-0.81505 -2.94713,-0.87895 -5.2982,-0.88349 -1.10205,-0.002 -2.0231,0.0155 -2.04676,0.0391 -0.0237,0.0236 0.0382,0.37661 0.13752,0.78436 0.17921,0.73586 0.17932,0.74254 0.0148,0.89796 -0.0915,0.0865 -0.62977,0.27715 -1.20172,0.42577 -1.11312,0.28924 -1.30715,0.27593 -1.4264,-0.0978 -0.274,-0.85884 -5.6009,-21.79238 -5.55544,-21.83168 0.0325,-0.0281 1.44976,-0.0961 3.14944,-0.1511 13.52653,-0.43775 15.58039,-0.55654 17.06032,-0.98677 0.75497,-0.21947 1.10289,-0.74098 3.89507,-5.83836 0.9693,-1.76953 2.08322,-3.76513 2.47538,-4.43465 0.94529,-1.61386 1.2243,-2.31321 1.27339,-3.1917 0.0442,-0.79156 -0.0816,-1.13737 -0.49064,-1.34891 -0.33005,-0.17068 -0.99458,-0.26029 -7.55439,-1.01865 -3.039,-0.35133 -6.17316,-0.73294 -6.96479,-0.84803 -2.37111,-0.34471 -2.88424,-0.38651 -4.74134,-0.38625 -3.60227,5e-4 -5.80395,0.32874 -12.34248,1.84011 -3.044,0.70361 -3.16753,0.74033 -5.5095,1.63768 -2.88547,1.1056 -5.82399,2.2913 -6.39256,2.57942 -1.44346,0.73145 -1.45263,1.1256 -0.2701,11.60565 1.02357,9.07133 1.10395,10.1862 1.10478,15.32465 0.001,7.16274 0.3926,12.67657 1.11088,15.64804 0.21268,0.8798 0.53016,1.40469 1.84777,3.05486 1.84235,2.30737 3.8365,4.56472 10.92706,12.36927 9.03724,9.94725 10.12339,11.21427 10.74964,12.53973 1.0708,2.26637 2.00614,8.38526 2.66602,17.44095 0.15267,2.09499 0.16049,2.67323 0.0419,3.10006 -0.10175,0.36639 -0.16045,0.38359 -1.45934,0.42769 -0.66582,0.0226 -0.85075,0.002 -0.94463,-0.10291 z m 41.33574,-60.92618 c 0.66257,-0.27677 1.12694,-0.93145 1.32351,-1.86594 0.37017,-1.75974 1.27985,-10.57837 2.33662,-22.6518 l 0.4271,-4.87958 -0.42603,-2.74043 -0.42603,-2.74042 -0.49015,-0.46566 c -0.89365,-0.84903 -1.19526,-0.96329 -10.05023,-3.807603 -7.22764,-2.321591 -8.00582,-2.565808 -8.04641,-2.525218 -0.0188,0.01883 0.0773,0.984693 0.21353,2.14636 0.85235,7.266091 1.67842,15.073661 2.00163,18.918461 0.25399,3.02144 0.18042,7.87788 -0.16876,11.14003 -0.11,1.02764 -0.068,1.3922 0.28189,2.44896 0.39875,1.2042 1.12464,2.42051 1.87919,3.14879 0.27894,0.26921 0.56159,0.42487 1.17193,0.64539 0.44238,0.15983 2.34738,0.89117 4.23333,1.62519 1.88595,0.73403 3.67665,1.42184 3.97933,1.52847 0.65012,0.22904 1.32222,0.25769 1.75955,0.075 z m -17.65942,-2.98001 c 1.05868,-1.60599 1.8427,-7.21262 1.84405,-13.18682 8.4e-4,-2.2559 -0.0498,-3.1424 -0.38693,-6.81567 -0.34589,-3.76907 -1.48558,-14.16795 -1.99039,-18.161002 -0.0942,-0.745066 -0.22265,-1.926166 -0.28546,-2.624666 -0.0628,-0.6985 -0.13903,-1.331826 -0.16938,-1.407391 -0.1191,-0.296468 -1.86427,-1.048389 -3.11691,-1.342939 -1.94211,-0.456678 -9.0636,-1.24841 -12.59178,-1.399891 -1.70566,-0.07323 -2.75059,0.113125 -4.1195,0.73469 l -0.4365,0.198197 1.65147,4.155575 1.65147,4.155575 0.9017,0.102965 c 5.7829,0.660352 10.47676,1.222917 11.07701,1.327587 3.08138,0.53735 4.24318,3.49356 2.74315,6.97997 -0.1703,0.39581 -0.65594,1.31021 -1.0792,2.03199 -0.42326,0.72179 -1.44632,2.55059 -2.27347,4.06401 -3.41524,6.2488 -3.77824,6.74076 -5.407,7.32777 -0.28497,0.1027 -0.8896,0.25306 -1.34362,0.33414 -0.48963,0.0874 -0.8255,0.18771 -0.8255,0.24644 0,0.10352 1.14176,4.71046 1.43791,5.80191 0.30449,1.12217 0.17661,2.13804 -0.38908,3.09074 -0.33876,0.57051 -0.33119,0.61482 0.20684,1.21017 l 0.31066,0.34377 1.778,0.39729 c 4.26246,0.95245 8.2657,1.98744 9.652,2.49542 0.37253,0.13651 0.73894,0.25033 0.81425,0.25293 0.0753,0.003 0.23109,-0.13813 0.34621,-0.31276 z m -24.43464,-4.17018 c 4.6841,-0.32491 6.99005,-0.54435 7.63551,-0.72659 0.53642,-0.15146 1.08207,-0.61189 1.29576,-1.09339 l 0.1503,-0.33867 -0.40685,-1.524 c -0.22377,-0.8382 -0.61087,-2.37655 -0.86023,-3.41854 l -0.45339,-1.89454 -0.7218,0.0496 c -0.39698,0.0273 -3.23639,0.13381 -6.30979,0.23674 -3.0734,0.10293 -5.59945,0.1953 -5.61343,0.20527 -0.014,0.01 0.47178,1.94795 1.0795,4.3066 0.60771,2.35865 1.10493,4.30617 1.10493,4.32784 0,0.0686 0.58886,0.0438 3.09949,-0.1303 z m -13.21716,-30.45006 c 4.84665,-1.121658 7.23682,-1.523612 10.287,-1.729958 1.57593,-0.106612 4.11663,-0.06221 5.32303,0.09302 0.38978,0.05015 0.72933,0.07055 0.75456,0.04533 0.0685,-0.06847 -2.95401,-7.650883 -3.73104,-9.359973 -1.42354,-3.131108 -2.08178,-4.282805 -2.74687,-4.806126 -0.42561,-0.334878 -0.65109,-0.395899 -0.93378,-0.252697 -0.30632,0.155171 -13.17794,9.985535 -13.5884,10.377776 -0.38793,0.370724 -0.40017,0.557471 -0.10361,1.580849 0.28592,0.986647 0.67698,1.98507 1.36108,3.475024 0.54894,1.195575 0.57492,1.234515 0.78751,1.180875 0.12092,-0.0305 1.28666,-0.30236 2.59052,-0.60411 z"
       id="path179"
       clip-path="url(#clipPath473)"
       transform="translate(-172.12158,-28.437478)"
       sodipodi:nodetypes="sssssssccccccscssscscsscsssscssssscsssssscssscsccscssssssssssssssssscsssssssssssscsscssssscssscsscsccccsccssccssccccscscssscsssssscscssssscsssssscccssccsscssssscccsscssscccscsssscsssscsscccsscssccsssscccsssssscssccc" /></g></svg>
