<?xml version="1.0" encoding="UTF-8" standalone="no"?>
<!-- Created with Inkscape (http://www.inkscape.org/) -->

<svg
   width="156.10748mm"
   height="136.9483mm"
   viewBox="0 0 156.10748 136.9483"
   version="1.1"
   id="svg5"
   xml:space="preserve"
   inkscape:export-filename="scissors.svg"
   inkscape:export-xdpi="96"
   inkscape:export-ydpi="96"
   sodipodi:docname="scissors.svg"
   inkscape:version="1.2 (dc2aeda, 2022-05-15)"
   xmlns:inkscape="http://www.inkscape.org/namespaces/inkscape"
   xmlns:sodipodi="http://sodipodi.sourceforge.net/DTD/sodipodi-0.dtd"
   xmlns:xlink="http://www.w3.org/1999/xlink"
   xmlns="http://www.w3.org/2000/svg"
   xmlns:svg="http://www.w3.org/2000/svg"><sodipodi:namedview
     id="namedview7"
     pagecolor="#ffffff"
     bordercolor="#000000"
     borderopacity="0.25"
     inkscape:showpageshadow="2"
     inkscape:pageopacity="0.0"
     inkscape:pagecheckerboard="0"
     inkscape:deskcolor="#d1d1d1"
     inkscape:document-units="mm"
     showgrid="false"
     inkscape:zoom="0.17537646"
     inkscape:cx="-156.80554"
     inkscape:cy="1895.9215"
     inkscape:window-width="1390"
     inkscape:window-height="1205"
     inkscape:window-x="1209"
     inkscape:window-y="84"
     inkscape:window-maximized="0"
     inkscape:current-layer="layer1" /><defs
     id="defs2"><linearGradient
       id="linearGradient15084"
       inkscape:swatch="solid"><stop
         style="stop-color:#000000;stop-opacity:1;"
         offset="0"
         id="stop15082" /></linearGradient><clipPath
       clipPathUnits="userSpaceOnUse"
       id="clipPath352"><rect
         style="fill:#0000ff;stroke-width:0.264583"
         id="rect354"
         width="377.48761"
         height="215.12296"
         x="-165.63647"
         y="38.035046" /></clipPath><linearGradient
       inkscape:collect="always"
       xlink:href="#linearGradient15084"
       id="linearGradient15086"
       x1="55.74365"
       y1="140.73849"
       x2="199.80756"
       y2="140.73849"
       gradientUnits="userSpaceOnUse" /></defs><g
     inkscape:label="Layer 1"
     inkscape:groupmode="layer"
     id="layer1"
     transform="translate(-19.344519,-35.448906)"><path
       style="fill:#000000;stroke-width:2.302;stroke-dasharray:none;stroke:url(#linearGradient15086)"
       d="m 79.610079,207.35224 c -0.07506,-0.0285 -0.505387,-0.37575 -0.956281,-0.77156 -0.702335,-0.61655 -0.816232,-0.75265 -0.794858,-0.9498 0.01812,-0.16714 1.658696,-2.07494 5.993948,-6.97028 l 5.969,-6.74017 0.677333,0.0506 c 7.154866,0.53452 16.082699,0.0692 21.933339,-1.14307 5.83246,-1.20854 12.96793,-4.43864 18.74899,-8.48734 2.08245,-1.45843 4.25045,-3.39883 4.68069,-4.18932 0.2542,-0.46705 0.41679,-1.53197 0.94651,-6.1993 0.59011,-5.19944 0.61236,-5.43432 0.51722,-5.46121 -0.0499,-0.0141 -1.72905,-0.0869 -3.73142,-0.16177 -2.00237,-0.0749 -6.28202,-0.25391 -9.51033,-0.39789 l -5.86967,-0.26177 -0.18425,0.17309 c -0.30187,0.2836 -1.09447,0.60224 -1.63984,0.65924 -0.59672,0.0624 -1.31629,-0.12306 -4.21658,-1.08657 -2.47119,-0.82096 -3.25493,-1.20312 -4.14866,-2.02295 -0.61467,-0.56383 -2.25782,-0.94724 -2.90307,-0.67738 -0.59713,0.24973 -0.95273,1.26891 -2.94128,8.42979 -0.0642,0.23114 -0.10897,0.42776 -0.0995,0.43693 0.01,0.009 5.69409,1.28176 12.63252,2.82797 6.93843,1.54622 12.64391,2.82823 12.67883,2.84891 0.0349,0.0207 0.0619,0.14013 0.06,0.26544 -0.005,0.35006 -0.47141,2.30299 -0.57395,2.40553 -0.0646,0.0646 -4.11611,-0.80576 -14.04414,-3.01695 -7.67434,-1.70925 -14.021624,-3.12761 -14.105062,-3.1519 -0.09241,-0.0269 -0.136208,-0.0994 -0.112055,-0.18551 0.02181,-0.0777 0.325709,-1.24623 0.675338,-2.59667 1.184599,-4.57548 2.192739,-7.8565 2.765879,-9.0016 0.22751,-0.45455 0.4864,-0.8102 0.82453,-1.13273 0.58612,-0.55907 1.00274,-0.78552 1.77432,-0.96447 0.31511,-0.0731 0.58202,-0.14197 0.59314,-0.15309 0.0111,-0.0111 -0.11536,-0.3415 -0.28109,-0.73416 -0.41723,-0.9886 -0.67864,-1.9335 -0.78317,-2.83093 -0.0488,-0.41892 -0.11299,-2.11423 -0.14264,-3.76735 -0.0296,-1.65312 -0.072,-3.07099 -0.0941,-3.15083 -0.0362,-0.13054 -4.659816,-2.58696 -4.722705,-2.50906 -0.01312,0.0163 -0.110177,0.50581 -0.215681,1.08789 -0.916963,5.05899 -3.305953,11.45659 -6.457614,17.29317 -0.584908,1.0832 -0.804545,1.41816 -0.929877,1.41816 -0.212079,0 -2.185547,-1.17849 -2.248594,-1.34279 -0.02639,-0.0688 0.02016,-0.24246 0.103454,-0.38596 1.023961,-1.76409 2.469703,-4.72639 3.494399,-7.15997 3.263757,-7.75119 4.488437,-14.80454 3.172061,-18.26896 l -0.16116,-0.42414 1.04404,-0.77843 c 0.604258,-0.45054 1.106521,-0.76641 1.192368,-0.74987 0.325143,0.0626 0.831682,1.34798 1.082606,2.74716 0.07411,0.41322 0.158149,1.36733 0.186766,2.12026 l 0.05203,1.36895 3.141087,1.60503 c 1.7276,0.88277 3.31974,1.6828 3.53809,1.77784 0.33826,0.14723 0.40924,0.22083 0.47963,0.49734 0.0454,0.1785 0.10762,1.71519 0.13817,3.41488 0.094,5.22997 0.16721,5.76288 1.02776,7.48343 0.70009,1.39973 1.86732,2.8326 2.69877,3.31294 0.64901,0.37494 5.48818,1.98934 5.60698,1.87053 0.0845,-0.0845 3.48264,-20.57817 3.4228,-20.64231 -0.11571,-0.12403 -31.078199,-17.54851 -31.745357,-17.86505 -0.386232,-0.18326 -1.072032,-0.42849 -1.524,-0.54495 -0.726896,-0.18732 -0.953705,-0.2079 -1.964758,-0.1783 -1.020301,0.0299 -1.231861,0.0636 -1.970778,0.3137 -1.453812,0.49217 -2.856831,1.44047 -4.197856,2.83731 -1.874994,1.95304 -10.554126,13.23782 -13.115821,17.05345 -1.81135,2.698 -2.430953,4.59395 -2.534776,7.75625 -0.08025,2.44418 0.164792,4.23981 1.07945,7.91013 0.658292,2.64159 1.511337,5.71604 2.628982,9.47512 0.420029,1.41272 0.752014,2.61631 0.737744,2.67463 -0.02265,0.0926 -8.28803,7.75153 -9.029438,8.36695 -0.486762,0.40405 -0.662737,0.33775 -1.486944,-0.56014 -0.400344,-0.43614 -0.727898,-0.86581 -0.727898,-0.95483 0,-0.089 0.05964,-0.24699 0.132526,-0.35106 0.07289,-0.10406 1.815964,-1.73782 3.873501,-3.63056 2.057536,-1.89274 3.811095,-3.5065 3.896798,-3.58614 0.150603,-0.13993 0.131555,-0.22815 -0.568434,-2.63244 -2.959578,-10.16546 -3.600457,-13.48688 -3.353116,-17.37788 0.21898,-3.44485 0.925997,-5.56948 2.790871,-8.38678 1.985531,-2.99957 7.084727,-9.75839 11.438736,-15.16167 1.825843,-2.26585 2.393703,-2.88934 3.403284,-3.73664 3.298851,-2.76859 6.832487,-3.56972 10.432281,-2.36516 1.140556,0.38165 1.451442,0.542 5.799555,2.99141 2.02565,1.14111 4.05787,2.28457 4.516043,2.54103 l 0.833045,0.46629 0.479289,-0.22683 c 0.263609,-0.12476 4.727441,-1.80177 9.919621,-3.7267 l 9.44033,-3.49987 10.57056,-11.46176 c 12.31068,-13.348554 24.41801,-26.511009 28.37743,-30.850418 1.5296,-1.6764 2.96504,-3.188276 3.18988,-3.359716 0.82109,-0.62615 2.06445,-0.92263 3.19737,-0.76241 1.36913,0.19362 2.1403,0.64117 3.71021,2.153242 1.50676,1.451251 2.24062,2.078734 6.15864,5.265964 0.19046,0.154937 0.45117,0.496227 0.59259,0.77578 0.23842,0.47127 0.25215,0.553507 0.24576,1.472807 -0.008,1.116425 -0.19742,1.832194 -0.84124,3.175 -0.65281,1.361553 -0.98733,1.813742 -4.47827,6.053666 -3.18229,3.865043 -28.78006,34.594915 -29.92377,35.923195 -0.11965,0.13895 -0.10874,0.17328 0.13127,0.41329 l 0.26177,0.26176 1.3419,-0.34603 c 10.81916,-2.7899 37.73874,-9.53699 44.31025,-11.10587 4.4142,-1.05385 5.40198,-1.25323 6.56167,-1.32442 1.60173,-0.0983 2.67695,0.22958 3.44492,1.0506 0.70873,0.75769 1.02979,1.58042 2.27084,5.81914 1.01561,3.46875 1.77446,6.28532 1.8648,6.9215 0.27032,1.90346 -0.74865,3.6431 -2.63798,4.50373 -1.50648,0.68624 -17.32169,4.8324 -29.19958,7.65504 -8.26007,1.96291 -13.80551,3.1882 -21.11801,4.66611 -1.39352,0.28164 -2.54295,0.52135 -2.55429,0.5327 -0.0113,0.0113 0.20295,1.71599 0.47621,3.7881 1.04794,7.94664 1.30445,10.66735 1.10275,11.69655 -0.39563,2.01871 -1.79468,2.94685 -4.61685,3.06281 -0.50992,0.0209 -0.93675,0.0709 -0.94849,0.1111 -0.0118,0.0402 -0.17729,1.48272 -0.36787,3.20569 -0.48608,4.39458 -0.912,7.77235 -1.06114,8.41546 -0.24634,1.06217 -0.85061,1.99478 -2.04126,3.15039 -3.50642,3.40322 -9.84111,7.26068 -16.07272,9.78734 -5.04885,2.0471 -9.32504,2.96507 -16.51,3.54421 -1.96357,0.15826 -9.918203,0.25673 -11.913733,0.14747 l -1.245735,-0.0682 -5.517615,6.223 c -3.034689,3.42265 -5.579258,6.24635 -5.654599,6.2749 -0.07534,0.0285 -0.198398,0.0285 -0.273459,0 z m 62.405631,-43.69696 c 1.10196,-0.20898 1.16748,-0.37635 0.97801,-2.49827 -0.21823,-2.44411 -1.49437,-12.44343 -1.60176,-12.55082 -0.0271,-0.0271 -1.50681,0.2043 -3.28831,0.51416 -6.90871,1.20161 -13.87128,2.08833 -16.39785,2.08833 -0.4612,0 -0.51602,0.0188 -0.55554,0.1905 -0.0948,0.41183 -1.90989,11.43387 -1.88673,11.45704 0.0286,0.0286 10.0617,0.47948 14.92369,0.67072 1.8161,0.0714 3.5687,0.14099 3.89467,0.15456 1.51913,0.0632 3.5328,0.0498 3.93382,-0.0262 z m -18.75049,-15.36973 c 3.56279,-0.2002 12.40642,-1.52751 20.02367,-3.00529 11.7419,-2.27798 28.09926,-6.0759 42.24867,-9.80948 7.87955,-2.07916 10.3492,-2.7989 10.85089,-3.16233 0.35676,-0.25843 0.57928,-0.66487 0.57884,-1.05722 0,-0.28726 -0.38575,-1.76007 -1.28025,-4.89222 -1.36212,-4.76949 -1.91055,-6.41166 -2.19156,-6.56205 -0.361,-0.1932 -1.66579,-0.0935 -3.24562,0.24809 -3.85321,0.83306 -22.11221,5.36407 -41.0343,10.18276 -4.77309,1.21551 -8.98696,2.28697 -9.36417,2.38102 l -0.68584,0.17099 -1.82937,-1.67919 c -1.0435,-0.95784 -1.80528,-1.71867 -1.7733,-1.77107 0.0308,-0.0505 5.33727,-6.41648 11.79207,-14.14654 15.23135,-18.24058 21.38989,-25.662534 22.84143,-27.527309 0.8034,-1.032118 1.48653,-2.325972 1.72411,-3.265504 0.16697,-0.660255 0.16805,-0.695969 0.0242,-0.801143 -1.12249,-0.820785 -4.86713,-4.026746 -6.22474,-5.32929 -1.14717,-1.100646 -1.4995,-1.303755 -2.26152,-1.303755 -0.54841,0 -0.84476,0.179722 -1.50213,0.910985 -2.12427,2.363036 -13.20316,14.419041 -31.62143,34.410316 l -9.86366,10.70606 -8.97467,3.33049 c -4.93606,1.83177 -9.06204,3.37427 -9.16884,3.42778 -0.1765,0.0884 0.74104,0.62398 10.07533,5.88086 5.64823,3.18097 10.29672,5.80847 10.32998,5.8389 0.0333,0.0304 -0.18519,1.52164 -0.48544,3.3138 -0.30025,1.79216 -0.54653,3.34755 -0.5473,3.45641 -0.001,0.1806 0.0264,0.19393 0.3161,0.1521 0.17463,-0.0252 0.7366,-0.0694 1.24884,-0.0982 z"
       id="path179"
       clip-path="url(#clipPath352)"
       transform="translate(-36.399131,-36.80811)"
       sodipodi:nodetypes="cssscscsssscscscsssscsccssssssssscscccssssssscscsscsscsssssscccsssssssssssssssssssscssccscsssscsssscsssssssssscsccsssssscscccssscsssccsscssscsscsscssssscsssscscscscscc" /></g></svg>
